<svg width="265" height="68" viewBox="0 0 265 68" fill="none" xmlns="http://www.w3.org/2000/svg">
<g clip-path="url(#clip0_20159_47624)">
<path d="M260.548 64.7526C259.896 64.7526 259.279 64.6623 258.697 64.4817C258.115 64.2911 257.659 64.0554 257.328 63.7745L257.809 62.9318C258.13 63.1726 258.541 63.3832 259.043 63.5638C259.545 63.7343 260.071 63.8196 260.623 63.8196C261.375 63.8196 261.917 63.7042 262.248 63.4735C262.579 63.2328 262.745 62.9168 262.745 62.5255C262.745 62.2346 262.649 62.0089 262.459 61.8484C262.278 61.6779 262.038 61.5525 261.737 61.4722C261.436 61.3819 261.1 61.3067 260.728 61.2465C260.357 61.1863 259.986 61.1161 259.615 61.0358C259.254 60.9556 258.923 60.8402 258.622 60.6897C258.321 60.5292 258.075 60.3135 257.884 60.0427C257.704 59.7718 257.614 59.4107 257.614 58.9593C257.614 58.5279 257.734 58.1417 257.975 57.8006C258.215 57.4595 258.567 57.1937 259.028 57.0031C259.499 56.8025 260.071 56.7021 260.743 56.7021C261.255 56.7021 261.767 56.7724 262.278 56.9128C262.79 57.0432 263.211 57.2188 263.542 57.4395L263.076 58.2972C262.725 58.0564 262.348 57.8859 261.947 57.7856C261.546 57.6752 261.145 57.62 260.743 57.62C260.031 57.62 259.505 57.7454 259.163 57.9962C258.832 58.237 258.667 58.548 258.667 58.9292C258.667 59.2301 258.757 59.4659 258.938 59.6364C259.128 59.8069 259.374 59.9424 259.675 60.0427C259.986 60.133 260.322 60.2082 260.683 60.2684C261.054 60.3286 261.421 60.4038 261.782 60.4941C262.153 60.5744 262.489 60.6897 262.79 60.8402C263.101 60.9807 263.347 61.1863 263.527 61.4572C263.718 61.718 263.813 62.0641 263.813 62.4954C263.813 62.9569 263.683 63.3582 263.422 63.6992C263.171 64.0303 262.8 64.2911 262.308 64.4817C261.827 64.6623 261.24 64.7526 260.548 64.7526Z" fill="#373737"/>
<path d="M252.627 64.7526C251.805 64.7526 251.082 64.582 250.46 64.2409C249.838 63.8898 249.352 63.4133 249.001 62.8114C248.65 62.1995 248.474 61.5023 248.474 60.7198C248.474 59.9374 248.64 59.2452 248.971 58.6433C249.312 58.0414 249.773 57.5699 250.355 57.2288C250.947 56.8777 251.609 56.7021 252.341 56.7021C253.084 56.7021 253.741 56.8727 254.313 57.2138C254.894 57.5448 255.351 58.0163 255.682 58.6282C256.013 59.2301 256.178 59.9273 256.178 60.7198C256.178 60.77 256.173 60.8252 256.163 60.8854C256.163 60.9355 256.163 60.9907 256.163 61.0509H249.287V60.2534H255.592L255.17 60.5694C255.17 59.9975 255.045 59.4909 254.794 59.0496C254.553 58.5981 254.222 58.247 253.801 57.9962C253.38 57.7454 252.893 57.62 252.341 57.62C251.8 57.62 251.313 57.7454 250.882 57.9962C250.45 58.247 250.114 58.5981 249.874 59.0496C249.633 59.501 249.512 60.0176 249.512 60.5994V60.765C249.512 61.3669 249.643 61.8985 249.904 62.36C250.174 62.8114 250.546 63.1676 251.017 63.4284C251.499 63.6792 252.045 63.8046 252.657 63.8046C253.139 63.8046 253.585 63.7193 253.997 63.5488C254.418 63.3782 254.779 63.1174 255.08 62.7663L255.682 63.4585C255.331 63.8798 254.889 64.2008 254.358 64.4215C253.836 64.6422 253.259 64.7526 252.627 64.7526Z" fill="#373737"/>
<path d="M245.156 64.6756V56.7757H246.225V64.6756H245.156ZM245.698 55.0302C245.477 55.0302 245.292 54.9549 245.141 54.8045C244.991 54.654 244.916 54.4734 244.916 54.2628C244.916 54.0521 244.991 53.8765 245.141 53.7361C245.292 53.5856 245.477 53.5104 245.698 53.5104C245.919 53.5104 246.104 53.5806 246.255 53.721C246.405 53.8615 246.48 54.037 246.48 54.2477C246.48 54.4684 246.405 54.654 246.255 54.8045C246.114 54.9549 245.929 55.0302 245.698 55.0302Z" fill="#373737"/>
<path d="M239.161 64.6773V56.7774H240.184V58.9292L240.079 58.553C240.299 57.9511 240.67 57.4946 241.192 57.1837C241.714 56.8627 242.361 56.7021 243.133 56.7021V57.7404C243.093 57.7404 243.053 57.7404 243.013 57.7404C242.973 57.7304 242.933 57.7254 242.892 57.7254C242.06 57.7254 241.408 57.9812 240.936 58.4928C240.465 58.9944 240.229 59.7116 240.229 60.6446V64.6773H239.161Z" fill="#373737"/>
<path d="M235.471 64.7519C234.729 64.7519 234.157 64.5513 233.756 64.15C233.354 63.7488 233.154 63.182 233.154 62.4497V55.0312H234.222V62.3895C234.222 62.8509 234.337 63.2071 234.568 63.4578C234.809 63.7086 235.15 63.834 235.591 63.834C236.063 63.834 236.454 63.6986 236.765 63.4277L237.141 64.1952C236.931 64.3858 236.675 64.5262 236.374 64.6165C236.083 64.7068 235.782 64.7519 235.471 64.7519ZM231.739 57.6646V56.7768H236.63V57.6646H231.739Z" fill="#373737"/>
<path d="M227.674 64.7526C227.022 64.7526 226.405 64.6623 225.823 64.4817C225.242 64.2911 224.785 64.0554 224.454 63.7745L224.936 62.9318C225.257 63.1726 225.668 63.3832 226.17 63.5638C226.671 63.7343 227.198 63.8196 227.75 63.8196C228.502 63.8196 229.044 63.7042 229.375 63.4735C229.706 63.2328 229.871 62.9168 229.871 62.5255C229.871 62.2346 229.776 62.0089 229.585 61.8484C229.405 61.6779 229.164 61.5525 228.863 61.4722C228.562 61.3819 228.226 61.3067 227.855 61.2465C227.484 61.1863 227.112 61.1161 226.741 61.0358C226.38 60.9556 226.049 60.8402 225.748 60.6897C225.447 60.5292 225.201 60.3135 225.011 60.0427C224.83 59.7718 224.74 59.4107 224.74 58.9593C224.74 58.5279 224.86 58.1417 225.101 57.8006C225.342 57.4595 225.693 57.1937 226.154 57.0031C226.626 56.8025 227.198 56.7021 227.87 56.7021C228.381 56.7021 228.893 56.7724 229.405 56.9128C229.916 57.0432 230.338 57.2188 230.669 57.4395L230.202 58.2972C229.851 58.0564 229.475 57.8859 229.074 57.7856C228.672 57.6752 228.271 57.62 227.87 57.62C227.158 57.62 226.631 57.7454 226.29 57.9962C225.959 58.237 225.793 58.548 225.793 58.9292C225.793 59.2301 225.884 59.4659 226.064 59.6364C226.255 59.8069 226.501 59.9424 226.802 60.0427C227.112 60.133 227.449 60.2082 227.81 60.2684C228.181 60.3286 228.547 60.4038 228.908 60.4941C229.279 60.5744 229.615 60.6897 229.916 60.8402C230.227 60.9807 230.473 61.1863 230.654 61.4572C230.844 61.718 230.94 62.0641 230.94 62.4954C230.94 62.9569 230.809 63.3582 230.548 63.6992C230.298 64.0303 229.926 64.2911 229.435 64.4817C228.953 64.6623 228.366 64.7526 227.674 64.7526Z" fill="#373737"/>
<path d="M218.629 64.7515C217.957 64.7515 217.37 64.6261 216.869 64.3753C216.367 64.1246 215.976 63.7484 215.695 63.2468C215.424 62.7452 215.289 62.1182 215.289 61.3659V56.7764H216.357V61.2455C216.357 62.0881 216.563 62.7251 216.974 63.1565C217.395 63.5778 217.982 63.7885 218.734 63.7885C219.286 63.7885 219.763 63.6781 220.164 63.4575C220.575 63.2267 220.886 62.8957 221.097 62.4643C221.318 62.033 221.428 61.5163 221.428 60.9144V56.7764H222.496V64.6763H221.473V62.5095L221.639 62.9007C221.388 63.4825 220.997 63.939 220.465 64.27C219.943 64.591 219.331 64.7515 218.629 64.7515Z" fill="#373737"/>
<path d="M208.232 64.7508C207.48 64.7508 206.802 64.5803 206.201 64.2392C205.609 63.8982 205.142 63.4267 204.801 62.8248C204.46 62.2128 204.29 61.5106 204.29 60.7181C204.29 59.9156 204.46 59.2134 204.801 58.6115C205.142 58.0096 205.609 57.5431 206.201 57.2121C206.802 56.871 207.48 56.7004 208.232 56.7004C208.924 56.7004 209.541 56.8559 210.083 57.1669C210.635 57.4779 211.071 57.9343 211.392 58.5362C211.723 59.1281 211.889 59.8554 211.889 60.7181C211.889 61.5708 211.728 62.2981 211.407 62.9C211.086 63.5019 210.65 63.9634 210.098 64.2844C209.556 64.5954 208.934 64.7508 208.232 64.7508ZM208.307 63.8029C208.869 63.8029 209.371 63.6775 209.812 63.4267C210.263 63.1658 210.615 62.8047 210.865 62.3433C211.126 61.8718 211.257 61.3301 211.257 60.7181C211.257 60.0962 211.126 59.5545 210.865 59.093C210.615 58.6315 210.263 58.2754 209.812 58.0246C209.371 57.7638 208.869 57.6334 208.307 57.6334C207.755 57.6334 207.259 57.7638 206.818 58.0246C206.376 58.2754 206.025 58.6315 205.764 59.093C205.503 59.5545 205.373 60.0962 205.373 60.7181C205.373 61.3301 205.503 61.8718 205.764 62.3433C206.025 62.8047 206.376 63.1658 206.818 63.4267C207.259 63.6775 207.755 63.8029 208.307 63.8029ZM211.287 64.6756V62.2981L211.392 60.7031L211.241 59.108V53.5104H212.31V64.6756H211.287Z" fill="#373737"/>
<path d="M198.879 56.7021C199.521 56.7021 200.083 56.8275 200.565 57.0783C201.056 57.3191 201.437 57.6903 201.708 58.1918C201.989 58.6934 202.13 59.3254 202.13 60.0878V64.6773H201.061V60.1932C201.061 59.3605 200.851 58.7336 200.429 58.3122C200.018 57.8809 199.436 57.6652 198.684 57.6652C198.122 57.6652 197.63 57.7806 197.209 58.0113C196.798 58.232 196.477 58.558 196.246 58.9894C196.025 59.4107 195.915 59.9223 195.915 60.5242V64.6773H194.847V56.7774H195.87V58.9442L195.704 58.5379C195.955 57.9661 196.356 57.5197 196.908 57.1987C197.46 56.8677 198.117 56.7021 198.879 56.7021Z" fill="#373737"/>
<path d="M190.457 64.6777V54.1444H191.571V64.6777H190.457Z" fill="#373737"/>
<path d="M179.213 67.6718C178.491 67.6718 177.799 67.5664 177.137 67.3558C176.474 67.1451 175.938 66.8442 175.526 66.4529L176.068 65.6404C176.439 65.9714 176.896 66.2322 177.437 66.4228C177.989 66.6235 178.571 66.7238 179.183 66.7238C180.186 66.7238 180.923 66.488 181.395 66.0165C181.866 65.5551 182.102 64.8328 182.102 63.8497V61.8785L182.253 60.5242L182.147 59.1699V56.7774H183.171V63.7143C183.171 65.0786 182.835 66.0767 182.162 66.7087C181.5 67.3508 180.517 67.6718 179.213 67.6718ZM179.017 64.3764C178.265 64.3764 177.588 64.2159 176.986 63.8948C176.384 63.5638 175.908 63.1074 175.557 62.5255C175.215 61.9437 175.045 61.2766 175.045 60.5242C175.045 59.7718 175.215 59.1097 175.557 58.5379C175.908 57.9561 176.384 57.5047 176.986 57.1837C177.588 56.8627 178.265 56.7021 179.017 56.7021C179.72 56.7021 180.352 56.8476 180.913 57.1385C181.475 57.4294 181.922 57.8608 182.253 58.4326C182.584 59.0044 182.749 59.7016 182.749 60.5242C182.749 61.3468 182.584 62.044 182.253 62.6158C181.922 63.1876 181.475 63.624 180.913 63.9249C180.352 64.2259 179.72 64.3764 179.017 64.3764ZM179.123 63.4284C179.705 63.4284 180.221 63.308 180.673 63.0672C181.124 62.8164 181.48 62.4754 181.741 62.044C182.002 61.6026 182.132 61.096 182.132 60.5242C182.132 59.9524 182.002 59.4508 181.741 59.0195C181.48 58.5881 181.124 58.252 180.673 58.0113C180.221 57.7605 179.705 57.6351 179.123 57.6351C178.551 57.6351 178.034 57.7605 177.573 58.0113C177.121 58.252 176.765 58.5881 176.505 59.0195C176.254 59.4508 176.128 59.9524 176.128 60.5242C176.128 61.096 176.254 61.6026 176.505 62.044C176.765 62.4754 177.121 62.8164 177.573 63.0672C178.034 63.308 178.551 63.4284 179.123 63.4284Z" fill="#373737"/>
<path d="M169.627 56.7021C170.269 56.7021 170.831 56.8275 171.312 57.0783C171.804 57.3191 172.185 57.6903 172.456 58.1918C172.737 58.6934 172.877 59.3254 172.877 60.0878V64.6773H171.809V60.1932C171.809 59.3605 171.598 58.7336 171.177 58.3122C170.766 57.8809 170.184 57.6652 169.431 57.6652C168.87 57.6652 168.378 57.7806 167.957 58.0113C167.545 58.232 167.224 58.558 166.994 58.9894C166.773 59.4107 166.663 59.9223 166.663 60.5242V64.6773H165.594V56.7774H166.617V58.9442L166.452 58.5379C166.703 57.9661 167.104 57.5197 167.656 57.1987C168.207 56.8677 168.865 56.7021 169.627 56.7021Z" fill="#373737"/>
<path d="M161.481 64.6756V56.7757H162.549V64.6756H161.481ZM162.022 55.0302C161.802 55.0302 161.616 54.9549 161.465 54.8045C161.315 54.654 161.24 54.4734 161.24 54.2628C161.24 54.0521 161.315 53.8765 161.465 53.7361C161.616 53.5856 161.802 53.5104 162.022 53.5104C162.243 53.5104 162.428 53.5806 162.579 53.721C162.729 53.8615 162.805 54.037 162.805 54.2477C162.805 54.4684 162.729 54.654 162.579 54.8045C162.439 54.9549 162.253 55.0302 162.022 55.0302Z" fill="#373737"/>
<path d="M152.863 64.6763V63.9691L158.129 57.303L158.355 57.6642H152.953V56.7764H159.198V57.4686L153.946 64.1496L153.675 63.7885H159.303V64.6763H152.863Z" fill="#373737"/>
<path d="M149.604 64.6756V56.7757H150.672V64.6756H149.604ZM150.145 55.0302C149.925 55.0302 149.739 54.9549 149.589 54.8045C149.438 54.654 149.363 54.4734 149.363 54.2628C149.363 54.0521 149.438 53.8765 149.589 53.7361C149.739 53.5856 149.925 53.5104 150.145 53.5104C150.366 53.5104 150.552 53.5806 150.702 53.721C150.852 53.8615 150.928 54.037 150.928 54.2477C150.928 54.4684 150.852 54.654 150.702 54.8045C150.562 54.9549 150.376 55.0302 150.145 55.0302Z" fill="#373737"/>
<path d="M143.391 56.7021C144.033 56.7021 144.595 56.8275 145.076 57.0783C145.568 57.3191 145.949 57.6903 146.22 58.1918C146.501 58.6934 146.641 59.3254 146.641 60.0878V64.6773H145.573V60.1932C145.573 59.3605 145.362 58.7336 144.941 58.3122C144.53 57.8809 143.948 57.6652 143.196 57.6652C142.634 57.6652 142.142 57.7806 141.721 58.0113C141.31 58.232 140.989 58.558 140.758 58.9894C140.537 59.4107 140.427 59.9223 140.427 60.5242V64.6773H139.358V56.7774H140.382V58.9442L140.216 58.5379C140.467 57.9661 140.868 57.5197 141.42 57.1987C141.972 56.8677 142.629 56.7021 143.391 56.7021Z" fill="#373737"/>
<path d="M133.063 64.7526C132.301 64.7526 131.614 64.582 131.002 64.2409C130.4 63.8898 129.923 63.4133 129.572 62.8114C129.221 62.1995 129.045 61.5023 129.045 60.7198C129.045 59.9273 129.221 59.2301 129.572 58.6282C129.923 58.0263 130.4 57.5548 131.002 57.2138C131.603 56.8727 132.291 56.7021 133.063 56.7021C133.846 56.7021 134.538 56.8727 135.14 57.2138C135.752 57.5548 136.228 58.0263 136.569 58.6282C136.92 59.2301 137.096 59.9273 137.096 60.7198C137.096 61.5023 136.92 62.1995 136.569 62.8114C136.228 63.4133 135.752 63.8898 135.14 64.2409C134.528 64.582 133.836 64.7526 133.063 64.7526ZM133.063 63.8046C133.635 63.8046 134.141 63.6792 134.583 63.4284C135.024 63.1676 135.37 62.8064 135.621 62.345C135.882 61.8735 136.012 61.3318 136.012 60.7198C136.012 60.0979 135.882 59.5562 135.621 59.0947C135.37 58.6332 135.024 58.2771 134.583 58.0263C134.141 57.7655 133.64 57.6351 133.078 57.6351C132.516 57.6351 132.015 57.7655 131.573 58.0263C131.132 58.2771 130.781 58.6332 130.52 59.0947C130.259 59.5562 130.129 60.0979 130.129 60.7198C130.129 61.3318 130.259 61.8735 130.52 62.345C130.781 62.8064 131.132 63.1676 131.573 63.4284C132.015 63.6792 132.511 63.8046 133.063 63.8046Z" fill="#373737"/>
<path d="M125.735 64.6756V56.7757H126.804V64.6756H125.735ZM126.277 55.0302C126.056 55.0302 125.871 54.9549 125.72 54.8045C125.57 54.654 125.495 54.4734 125.495 54.2628C125.495 54.0521 125.57 53.8765 125.72 53.7361C125.871 53.5856 126.056 53.5104 126.277 53.5104C126.498 53.5104 126.683 53.5806 126.834 53.721C126.984 53.8615 127.06 54.037 127.06 54.2477C127.06 54.4684 126.984 54.654 126.834 54.8045C126.693 54.9549 126.508 55.0302 126.277 55.0302Z" fill="#373737"/>
<path d="M122.051 64.7519C121.309 64.7519 120.737 64.5513 120.336 64.15C119.934 63.7488 119.734 63.182 119.734 62.4497V55.0312H120.802V62.3895C120.802 62.8509 120.918 63.2071 121.148 63.4578C121.389 63.7086 121.73 63.834 122.171 63.834C122.643 63.834 123.034 63.6986 123.345 63.4277L123.721 64.1952C123.511 64.3858 123.255 64.5262 122.954 64.6165C122.663 64.7068 122.362 64.7519 122.051 64.7519ZM118.319 57.6646V56.7768H123.21V57.6646H118.319Z" fill="#373737"/>
<path d="M112.623 64.7515C111.951 64.7515 111.364 64.6261 110.863 64.3753C110.361 64.1246 109.97 63.7484 109.689 63.2468C109.418 62.7452 109.283 62.1182 109.283 61.3659V56.7764H110.351V61.2455C110.351 62.0881 110.557 62.7251 110.968 63.1565C111.389 63.5778 111.976 63.7885 112.729 63.7885C113.28 63.7885 113.757 63.6781 114.158 63.4575C114.569 63.2267 114.88 62.8957 115.091 62.4643C115.312 62.033 115.422 61.5163 115.422 60.9144V56.7764H116.49V64.6763H115.467V62.5095L115.633 62.9007C115.382 63.4825 114.991 63.939 114.459 64.27C113.937 64.591 113.325 64.7515 112.623 64.7515Z" fill="#373737"/>
<path d="M105.24 64.6756V53.5104H106.309V64.6756H105.24Z" fill="#373737"/>
<path d="M98.961 64.7526C98.1986 64.7526 97.5115 64.582 96.8995 64.2409C96.2976 63.8898 95.8211 63.4133 95.47 62.8114C95.1189 62.1995 94.9434 61.5023 94.9434 60.7198C94.9434 59.9273 95.1189 59.2301 95.47 58.6282C95.8211 58.0263 96.2976 57.5548 96.8995 57.2138C97.5014 56.8727 98.1886 56.7021 98.961 56.7021C99.7435 56.7021 100.436 56.8727 101.038 57.2138C101.65 57.5548 102.126 58.0263 102.467 58.6282C102.818 59.2301 102.994 59.9273 102.994 60.7198C102.994 61.5023 102.818 62.1995 102.467 62.8114C102.126 63.4133 101.65 63.8898 101.038 64.2409C100.426 64.582 99.7335 64.7526 98.961 64.7526ZM98.961 63.8046C99.5328 63.8046 100.039 63.6792 100.481 63.4284C100.922 63.1676 101.268 62.8064 101.519 62.345C101.78 61.8735 101.91 61.3318 101.91 60.7198C101.91 60.0979 101.78 59.5562 101.519 59.0947C101.268 58.6332 100.922 58.2771 100.481 58.0263C100.039 57.7655 99.5379 57.6351 98.9761 57.6351C98.4143 57.6351 97.9127 57.7655 97.4713 58.0263C97.0299 58.2771 96.6788 58.6332 96.418 59.0947C96.1572 59.5562 96.0268 60.0979 96.0268 60.7198C96.0268 61.3318 96.1572 61.8735 96.418 62.345C96.6788 62.8064 97.0299 63.1676 97.4713 63.4284C97.9127 63.6792 98.4093 63.8046 98.961 63.8046Z" fill="#373737"/>
<path d="M89.7556 64.6763L86.2495 56.7764H87.363L90.5832 64.1045H90.0565L93.3218 56.7764H94.3752L90.854 64.6763H89.7556Z" fill="#373737"/>
<path d="M82.0725 64.7526C81.2499 64.7526 80.5277 64.582 79.9057 64.2409C79.2837 63.8898 78.7972 63.4133 78.4461 62.8114C78.095 62.1995 77.9194 61.5023 77.9194 60.7198C77.9194 59.9374 78.085 59.2452 78.416 58.6433C78.7571 58.0414 79.2185 57.5699 79.8004 57.2288C80.3922 56.8777 81.0543 56.7021 81.7866 56.7021C82.529 56.7021 83.1861 56.8727 83.7579 57.2138C84.3397 57.5448 84.7961 58.0163 85.1272 58.6282C85.4582 59.2301 85.6237 59.9273 85.6237 60.7198C85.6237 60.77 85.6187 60.8252 85.6087 60.8854C85.6087 60.9355 85.6087 60.9907 85.6087 61.0509H78.732V60.2534H85.0369L84.6156 60.5694C84.6156 59.9975 84.4902 59.4909 84.2394 59.0496C83.9986 58.5981 83.6676 58.247 83.2462 57.9962C82.8249 57.7454 82.3384 57.62 81.7866 57.62C81.2449 57.62 80.7584 57.7454 80.327 57.9962C79.8957 58.247 79.5596 58.5981 79.3189 59.0496C79.0781 59.501 78.9577 60.0176 78.9577 60.5994V60.765C78.9577 61.3669 79.0881 61.8985 79.3489 62.36C79.6198 62.8114 79.991 63.1676 80.4625 63.4284C80.944 63.6792 81.4907 63.8046 82.1026 63.8046C82.5842 63.8046 83.0306 63.7193 83.4419 63.5488C83.8632 63.3782 84.2243 63.1174 84.5253 62.7663L85.1272 63.4585C84.7761 63.8798 84.3347 64.2008 83.803 64.4215C83.2814 64.6422 82.7045 64.7526 82.0725 64.7526Z" fill="#373737"/>
<path d="M67.9888 64.6777V54.1444H71.9312C72.824 54.1444 73.5915 54.2899 74.2335 54.5808C74.8755 54.8617 75.3671 55.273 75.7081 55.8147C76.0592 56.3464 76.2348 56.9934 76.2348 57.7558C76.2348 58.4981 76.0592 59.1402 75.7081 59.6819C75.3671 60.2136 74.8755 60.6249 74.2335 60.9158C73.5915 61.1967 72.824 61.3371 71.9312 61.3371H68.6057L69.1023 60.8255V64.6777H67.9888ZM75.1815 64.6777L72.4729 60.8556H73.6767L76.4003 64.6777H75.1815ZM69.1023 60.9158L68.6057 60.3891H71.9011C72.9544 60.3891 73.752 60.1584 74.2937 59.6969C74.8454 59.2355 75.1213 58.5884 75.1213 57.7558C75.1213 56.9131 74.8454 56.2611 74.2937 55.7996C73.752 55.3382 72.9544 55.1074 71.9011 55.1074H68.6057L69.1023 54.5808V60.9158Z" fill="#373737"/>
<path d="M250.135 37.2026C247.483 37.2026 245.129 36.6662 243.072 35.5934C241.016 34.5205 239.392 33.0453 238.2 31.1679C237.038 29.2606 236.457 27.0851 236.457 24.6413C236.457 22.1976 237.038 20.037 238.2 18.1595C239.392 16.282 241.016 14.8218 243.072 13.7787C245.129 12.7059 247.483 12.1694 250.135 12.1694C252.788 12.1694 255.142 12.7059 257.198 13.7787C259.284 14.8218 260.909 16.282 262.071 18.1595C263.233 20.037 263.814 22.1976 263.814 24.6413C263.814 27.0851 263.233 29.2606 262.071 31.1679C260.909 33.0453 259.284 34.5205 257.198 35.5934C255.142 36.6662 252.788 37.2026 250.135 37.2026ZM250.135 30.4526C251.119 30.4526 251.983 30.2291 252.728 29.7821C253.503 29.3351 254.114 28.6794 254.561 27.8152C255.008 26.9211 255.231 25.8632 255.231 24.6413C255.231 23.4195 255.008 22.3913 254.561 21.5569C254.114 20.6926 253.503 20.037 252.728 19.59C251.983 19.143 251.119 18.9195 250.135 18.9195C249.182 18.9195 248.318 19.143 247.543 19.59C246.798 20.037 246.187 20.6926 245.71 21.5569C245.263 22.3913 245.039 23.4195 245.039 24.6413C245.039 25.8632 245.263 26.9211 245.71 27.8152C246.187 28.6794 246.798 29.3351 247.543 29.7821C248.318 30.2291 249.182 30.4526 250.135 30.4526Z" fill="#122A72"/>
<path d="M218.461 36.8003V12.5718H226.552V19.6347L225.345 17.6231C226.06 15.8052 227.223 14.4492 228.832 13.5552C230.441 12.6314 232.393 12.1694 234.688 12.1694V19.8135C234.3 19.7539 233.958 19.7241 233.66 19.7241C233.391 19.6943 233.093 19.6794 232.766 19.6794C231.037 19.6794 229.636 20.1562 228.564 21.1099C227.491 22.0337 226.954 23.5536 226.954 25.6695V36.8003H218.461Z" fill="#122A72"/>
<path d="M204.448 36.8003V12.5717H212.941V36.8003H204.448ZM208.694 9.88958C207.145 9.88958 205.893 9.45745 204.939 8.59321C203.986 7.72897 203.509 6.65612 203.509 5.37466C203.509 4.0932 203.986 3.02034 204.939 2.1561C205.893 1.29186 207.145 0.859741 208.694 0.859741C210.244 0.859741 211.496 1.27696 212.449 2.1114C213.403 2.91604 213.88 3.95909 213.88 5.24055C213.88 6.58162 213.403 7.69917 212.449 8.59321C211.525 9.45745 210.274 9.88958 208.694 9.88958Z" fill="#122A72"/>
<path d="M191.184 36.8003V32.2854L190.603 31.1679V22.8532C190.603 21.5122 190.186 20.484 189.351 19.7688C188.547 19.0238 187.25 18.6512 185.462 18.6512C184.3 18.6512 183.123 18.845 181.931 19.2324C180.739 19.59 179.725 20.0966 178.891 20.7522L176.03 14.9857C177.401 14.0916 179.04 13.4062 180.947 12.9294C182.884 12.4227 184.807 12.1694 186.714 12.1694C190.648 12.1694 193.687 13.0784 195.833 14.8963C198.009 16.6844 199.096 19.5006 199.096 23.345V36.8003H191.184ZM184.032 37.2026C182.095 37.2026 180.456 36.8748 179.115 36.2192C177.773 35.5636 176.745 34.6695 176.03 33.5371C175.345 32.4046 175.002 31.1381 175.002 29.7374C175.002 28.2473 175.374 26.9658 176.12 25.893C176.894 24.7903 178.072 23.9559 179.651 23.3897C181.23 22.7936 183.272 22.4956 185.775 22.4956H191.497V26.9211H186.937C185.567 26.9211 184.598 27.1447 184.032 27.5917C183.495 28.0387 183.227 28.6347 183.227 29.3798C183.227 30.1248 183.51 30.7208 184.076 31.1679C184.643 31.6149 185.418 31.8384 186.401 31.8384C187.325 31.8384 188.159 31.6149 188.904 31.1679C189.679 30.691 190.245 29.9758 190.603 29.0221L191.765 32.1513C191.318 33.8202 190.439 35.0867 189.128 35.951C187.846 36.7854 186.148 37.2026 184.032 37.2026Z" fill="#122A72"/>
<path d="M161.23 12.1694C163.107 12.1694 164.776 12.5569 166.236 13.3317C167.726 14.0767 168.889 15.239 169.723 16.8185C170.587 18.3979 171.019 20.4393 171.019 22.9427V36.8003H162.526V24.3284C162.526 22.5999 162.198 21.3483 161.543 20.5734C160.887 19.7688 159.993 19.3665 158.86 19.3665C158.056 19.3665 157.326 19.5602 156.67 19.9476C156.014 20.335 155.508 20.9311 155.15 21.7357C154.793 22.5105 154.614 23.5238 154.614 24.7754V36.8003H146.12V24.3284C146.12 22.5999 145.793 21.3483 145.137 20.5734C144.511 19.7688 143.617 19.3665 142.455 19.3665C141.62 19.3665 140.875 19.5602 140.22 19.9476C139.594 20.335 139.087 20.9311 138.7 21.7357C138.342 22.5105 138.163 23.5238 138.163 24.7754V36.8003H129.67V12.5718H137.761V19.3218L136.152 17.3996C137.046 15.6711 138.268 14.3747 139.817 13.5105C141.367 12.6165 143.095 12.1694 145.003 12.1694C147.178 12.1694 149.086 12.7357 150.725 13.8681C152.394 14.9708 153.511 16.6993 154.077 19.0536L151.306 18.4724C152.17 16.5055 153.466 14.9708 155.195 13.8681C156.953 12.7357 158.965 12.1694 161.23 12.1694Z" fill="#122A72"/>
<path d="M108.912 37.2032C106.945 37.2032 105.172 36.8157 103.592 36.0409C102.043 35.2661 100.821 34.0591 99.9267 32.42C99.0625 30.7511 98.6304 28.6501 98.6304 26.117V12.5723H107.124V24.7313C107.124 26.6087 107.466 27.9498 108.152 28.7545C108.867 29.5591 109.866 29.9614 111.147 29.9614C111.981 29.9614 112.741 29.7677 113.427 29.3803C114.112 28.9929 114.664 28.3819 115.081 27.5475C115.498 26.6833 115.707 25.5806 115.707 24.2395V12.5723H124.2V36.8008H116.109V29.9614L117.673 31.8836C116.839 33.6717 115.632 35.0128 114.053 35.9068C112.473 36.771 110.76 37.2032 108.912 37.2032Z" fill="#122A72"/>
<path d="M81.1759 37.4257C78.613 37.4257 76.1395 37.1128 73.7553 36.487C71.401 35.8314 69.4788 34.9969 67.9888 33.9837L70.8944 27.4572C72.2951 28.3512 73.9044 29.0962 75.7222 29.6923C77.5699 30.2585 79.4027 30.5416 81.2206 30.5416C82.4425 30.5416 83.4259 30.4373 84.171 30.2287C84.916 29.9903 85.4524 29.6923 85.7802 29.3347C86.1378 28.9472 86.3167 28.5002 86.3167 27.9936C86.3167 27.2784 85.9888 26.7121 85.3332 26.2949C84.6776 25.8777 83.8282 25.535 82.7852 25.2668C81.7421 24.9985 80.5799 24.7303 79.2984 24.4621C78.0468 24.1939 76.7802 23.8512 75.4987 23.434C74.2471 23.0167 73.0997 22.4803 72.0567 21.8247C71.0136 21.1393 70.1643 20.2601 69.5086 19.1873C68.853 18.0846 68.5252 16.6988 68.5252 15.03C68.5252 13.1525 69.0318 11.4538 70.0451 9.93391C71.0881 8.41404 72.6378 7.19218 74.6941 6.26834C76.7504 5.34449 79.3133 4.88257 82.3829 4.88257C84.4392 4.88257 86.4508 5.12098 88.4177 5.5978C90.4144 6.04483 92.1875 6.71536 93.7372 7.6094L91.0104 14.1806C89.5203 13.376 88.0451 12.7799 86.5849 12.3925C85.1246 11.9753 83.709 11.7667 82.3382 11.7667C81.1163 11.7667 80.1329 11.9008 79.3878 12.169C78.6428 12.4074 78.1064 12.7352 77.7785 13.1525C77.4507 13.5697 77.2868 14.0465 77.2868 14.5829C77.2868 15.2684 77.5997 15.8197 78.2256 16.2369C78.8812 16.6243 79.7305 16.9522 80.7736 17.2204C81.8464 17.4588 83.0087 17.7121 84.2604 17.9803C85.5418 18.2485 86.8084 18.5912 88.06 19.0085C89.3415 19.3959 90.5038 19.9323 91.5468 20.6177C92.5899 21.2734 93.4243 22.1525 94.0501 23.2552C94.7058 24.328 95.0336 25.684 95.0336 27.3231C95.0336 29.1409 94.5121 30.8247 93.469 32.3744C92.4558 33.8943 90.921 35.1161 88.8647 36.04C86.8382 36.9638 84.2753 37.4257 81.1759 37.4257Z" fill="#122A72"/>
<path d="M263.814 44.318V46.6197H67.9873V44.318H263.814Z" fill="#2257F7"/>
<path d="M40.0798 33.9706L41.3441 51.1337C41.2995 51.5595 41.5214 51.9688 41.9025 52.1638L50.5392 55.1119C51.2977 55.5 52.1743 54.8575 52.0325 54.0173L52.4695 40.3367C52.4163 40.0217 52.2208 39.7488 51.9396 39.5972L41.6016 33.1667C40.9528 32.8169 40.1566 33.2375 40.0798 33.9706Z" fill="#2257F7"/>
<path d="M21.4253 54.6868L23.5014 63.9947C23.5371 64.8325 24.5015 65.2829 25.1668 64.7725L37.3577 57.9606C37.6228 57.7572 37.7735 57.4385 37.7625 57.1046L38.3669 44.9208C38.3431 44.1981 37.605 43.7216 36.9366 43.9973L22.0652 53.6851C21.6625 53.8512 21.4067 54.2515 21.4253 54.6868Z" fill="#2257F7"/>
<path d="M8.0937 38.161L1.97125 46.354C1.25442 46.8108 1.36241 47.8888 2.1556 48.1943L14.5309 53.5367C14.8314 53.6524 15.1686 53.6218 15.4433 53.4539L24.8219 48.7444C25.461 48.3538 25.4872 47.435 24.8713 47.0087L9.23986 38.1829C8.89702 37.9456 8.44533 37.937 8.0937 38.161Z" fill="#2257F7"/>
<path d="M6.15061 17.1897L6.06933 31.359C6.12431 31.6872 6.33368 31.9691 6.63207 32.1165L16.7193 38.9439C17.3662 39.2636 18.1336 38.8404 18.2085 38.1227L17.4873 20.2846C17.5303 19.8724 17.3236 19.4743 16.9617 19.2724L7.67696 16.114C6.91839 15.6908 6.00712 16.333 6.15061 17.1897Z" fill="#2257F7"/>
<path d="M21.0759 14.6292L20.4274 26.9227C20.4648 27.6381 21.1997 28.1004 21.8608 27.8246L36.1925 17.804C36.5971 17.6352 36.8515 17.2301 36.828 16.7924L33.9692 6.2641C33.9241 5.4252 32.9516 4.98615 32.2925 5.50711L21.4681 13.7624C21.2046 13.9707 21.0584 14.2938 21.0759 14.6292Z" fill="#2257F7"/>
<path d="M42.1361 17.02L34.0442 23.8372C33.3209 24.2836 33.4134 25.3631 34.2022 25.6799L49.4103 32.4267C49.7091 32.5467 50.0467 32.5209 50.3238 32.357L57.2582 26.7066C57.9028 26.3252 57.9421 25.4068 57.3324 24.9718L43.2819 17.0582C42.9424 16.816 42.4909 16.801 42.1361 17.02Z" fill="#2257F7"/>
</g>
<defs>
<clipPath id="clip0_20159_47624">
<rect width="264" height="67" fill="white" transform="translate(0.784668 0.814941)"/>
</clipPath>
</defs>
</svg>
